<?xml version="1.0" encoding="UTF-8" standalone="no"?>
<!DOCTYPE svg PUBLIC "-//W3C//DTD SVG 1.1//EN" "http://www.w3.org/Graphics/SVG/1.1/DTD/svg11.dtd">
<svg width="100%" height="100%" viewBox="0 0 337 204" version="1.1" xmlns="http://www.w3.org/2000/svg" xmlns:xlink="http://www.w3.org/1999/xlink" xml:space="preserve" xmlns:serif="http://www.serif.com/" style="fill-rule:evenodd;clip-rule:evenodd;stroke-linejoin:round;stroke-miterlimit:2;">
    <g transform="matrix(0.651066,0,0,0.651066,168.192,101.729)">
        <g transform="matrix(1,0,0,1,-258.333,-156.25)">
            <g transform="matrix(4.16667,0,0,4.16667,0,0)">
                <path d="M59.583,24.426C61.762,24.426 63.879,24.625 65.901,24.994L70.709,19.985C67.346,18.82 63.572,18.168 59.583,18.168C52.799,18.168 46.641,20.059 42.074,23.138L46.264,27.107C50.138,25.41 54.696,24.426 59.583,24.426Z" style="fill:rgb(154,154,155);fill-rule:nonzero;"/>
                <path d="M59.583,18.168C63.572,18.168 67.346,18.82 70.709,19.985L75.936,14.543C71.058,12.62 65.495,11.527 59.583,11.527C50.77,11.527 42.729,13.953 36.591,17.943L42.074,23.138C46.641,20.059 52.799,18.168 59.583,18.168Z" style="fill:white;fill-rule:nonzero;"/>
                <path d="M34.482,39.462C34.921,37.665 35.733,35.962 36.853,34.386L34.747,32.256C34.33,33.565 34.099,34.928 34.099,36.332C34.099,37.399 34.232,38.443 34.482,39.462Z" style="fill:rgb(154,154,155);fill-rule:nonzero;"/>
                <path d="M18.921,51.237L18.037,55.82L26.834,52.033C26.279,50.865 26.17,49.342 25.849,48.104L18.921,51.237Z" style="fill:rgb(154,154,155);fill-rule:nonzero;"/>
                <path d="M12.731,1.392L0,71.11L6.021,71.6L18.627,0.869L12.731,1.392Z" style="fill:rgb(154,154,155);fill-rule:nonzero;"/>
                <path d="M55.543,41.511L55.543,35.873L46.296,27.107L42.108,23.138L36.624,17.943L18.606,0.868L5.996,71.6L32.679,59.87C30.022,57.523 28.14,55.021 26.741,52.073L18.055,55.798L18.926,51.239L24.554,21.903L25.024,19.441L29.671,24.12L35.651,30.142L38.218,32.731L48.772,41.823L38.527,46.518C41.188,49.175 44.34,51.517 48.59,52.839L61.373,47.1L55.543,41.511Z" style="fill:rgb(237,28,36);fill-rule:nonzero;"/>
                <path d="M84.681,39.462C84.929,38.443 85.066,37.399 85.066,36.332C85.066,33.183 83.915,30.211 81.933,27.63L78.898,30.772C81.813,33.197 83.883,36.186 84.681,39.462Z" style="fill:rgb(154,154,155);fill-rule:nonzero;"/>
                <path d="M90.386,69.3L83.194,62.39C82.043,63.175 80.814,63.904 79.527,64.573L90.386,75L123.875,40.121L123.838,34.473L90.386,69.3Z" style="fill:rgb(154,154,155);fill-rule:nonzero;"/>
                <path d="M65.984,45.875L60.06,40.186L55.527,35.859L55.511,41.511L61.884,47.632L67.976,53.484C69.524,53.097 71.004,52.612 72.397,52.033L65.984,45.875Z" style="fill:rgb(154,154,155);fill-rule:nonzero;"/>
                <path d="M89.269,14.332L84.501,19.295L79.244,24.774L75.658,28.505L68.865,35.58L71.71,38.311L78.938,30.787L81.96,27.639L87.498,21.875L89.269,20.028L107.684,37.681L110.532,34.723L89.269,14.332Z" style="fill:rgb(154,154,155);fill-rule:nonzero;"/>
                <path d="M87.498,21.875L81.96,27.639C83.942,30.22 85.066,33.183 85.066,36.332C85.066,37.399 84.929,38.443 84.681,39.462C84.035,42.111 82.583,44.565 80.51,46.689C78.39,48.863 75.62,50.693 72.397,52.033C71.004,52.612 69.524,53.097 67.976,53.484C65.349,54.135 62.524,54.495 59.583,54.495C55.959,54.495 52.516,53.956 49.397,52.984C45.146,51.659 41.501,49.535 38.838,46.876C37.867,45.907 37.028,44.864 36.334,43.763C35.481,42.41 34.851,40.969 34.482,39.462C34.232,38.443 34.099,37.399 34.099,36.332C34.099,34.928 34.33,33.565 34.747,32.256L28.388,25.819C26.059,29.273 24.745,33.164 24.745,37.285C24.745,38.345 24.843,39.389 25.012,40.415C25.419,42.907 26.313,45.284 27.612,47.503C28.263,48.618 29.02,49.692 29.872,50.718C32.109,53.417 34.994,55.788 38.375,57.71C44.246,61.048 51.597,63.041 59.583,63.041C65.169,63.041 70.443,62.067 75.121,60.339C76.541,59.817 77.902,59.223 79.205,58.566C82.22,57.039 84.896,55.174 87.128,53.042C90.876,49.463 93.378,45.136 94.153,40.415C94.322,39.389 94.418,38.345 94.418,37.285C94.418,31.505 91.844,26.17 87.498,21.875Z" style="fill:white;fill-rule:nonzero;"/>
                <path d="M65.954,45.917L72.345,52.055C75.564,50.713 78.358,48.906 80.482,46.731L71.718,38.316L68.873,35.586L75.629,28.549L79.211,24.816L84.471,19.337L89.24,14.374L110.452,34.739L107.605,37.707L90.226,55.8C88.396,58.309 86.022,60.536 83.214,62.458L90.356,69.345L123.845,34.469L88.967,0.981L75.905,14.585L70.677,20.028L65.867,25.038L55.527,35.859L65.954,45.917Z" style="fill:rgb(0,102,179);fill-rule:nonzero;"/>
                <path d="M36.479,43.937C36.479,43.937 36.646,44.213 36.665,44.243C37.177,45.056 37.879,45.8 38.545,46.544L48.963,41.729L25.021,19.433L24.368,22.882L43.152,41.479L36.479,43.937Z" style="fill:rgb(154,154,155);fill-rule:nonzero;"/>
                <path d="M94.418,37.285C94.418,38.345 94.322,39.389 94.153,40.415C93.378,45.136 90.876,49.463 87.128,53.042C84.896,55.174 82.22,57.039 79.205,58.566C77.902,59.223 76.541,59.817 75.121,60.339C70.443,62.067 65.169,63.041 59.583,63.041C51.597,63.041 44.246,61.048 38.375,57.71C34.994,55.788 32.109,53.417 29.872,50.718C29.02,49.692 28.263,48.618 27.612,47.503C26.313,45.284 25.419,42.907 25.012,40.415C24.843,39.389 24.745,38.345 24.745,37.285C24.745,36.951 24.771,36.622 24.787,36.294C24.784,36.276 24.777,36.25 24.776,36.234C24.606,37.261 24.745,42.487 24.745,43.546C24.745,45.226 24.97,46.866 25.385,48.457C25.709,49.699 26.154,50.905 26.709,52.073C28.107,55.021 30.206,57.723 32.863,60.072C39.257,65.71 48.853,69.3 59.583,69.3C67.028,69.3 73.921,67.568 79.584,64.628C80.87,63.959 82.093,63.229 83.242,62.444C86.049,60.523 88.426,58.267 90.256,55.758C92.91,52.128 94.418,47.966 94.418,43.546C94.418,42.614 94.498,38.194 94.408,36.44C94.392,36.199 94.418,36.98 94.418,37.285Z" style="fill:rgb(154,154,155);fill-rule:nonzero;"/>
                <path d="M94.298,73.006L93.634,73.006L93.634,72.767L95.247,72.767L95.247,73.006L94.582,73.006L94.582,74.945L94.298,74.945L94.298,73.006Z" style="fill:rgb(154,154,155);fill-rule:nonzero;"/>
                <path d="M97.261,73.988C97.247,73.685 97.227,73.319 97.231,73.048L97.22,73.048C97.146,73.303 97.055,73.575 96.946,73.874L96.56,74.932L96.348,74.932L95.995,73.895C95.891,73.587 95.804,73.306 95.743,73.048L95.736,73.048C95.729,73.319 95.713,73.685 95.694,74.01L95.637,74.945L95.369,74.945L95.521,72.767L95.878,72.767L96.251,73.821C96.341,74.089 96.416,74.328 96.471,74.553L96.48,74.553C96.536,74.334 96.614,74.095 96.709,73.821L97.097,72.767L97.457,72.767L97.592,74.945L97.318,74.945L97.261,73.988Z" style="fill:rgb(154,154,155);fill-rule:nonzero;"/>
            </g>
        </g>
    </g>
</svg>
